<svg width="17" height="23" viewBox="0 0 17 23" fill="none" xmlns="http://www.w3.org/2000/svg">
<path d="M1 11.5V14V16C1 19.3137 3.68629 22 7 22H10C13.3137 22 16 19.3137 16 16V7.5C16 6.67157 15.3284 6 14.5 6C13.6716 6 13 6.67157 13 7.5V4.5C13 3.67157 12.3284 3 11.5 3C10.6716 3 10 3.67157 10 4.5V2.5C10 1.67157 9.32843 1 8.5 1C7.67157 1 7 1.67157 7 2.5V3.5C7 2.67157 6.32843 2 5.5 2C4.67157 2 4 2.67157 4 3.5V11.5C4 10.6716 3.32843 10 2.5 10C1.67157 10 1 10.6716 1 11.5Z" fill="white"/>
<path d="M4 11.5V16.5M4 11.5V3.5C4 2.67157 4.67157 2 5.5 2C6.32843 2 7 2.67157 7 3.5M4 11.5C4 10.6716 3.32843 10 2.5 10C1.67157 10 1 10.6716 1 11.5V14V16C1 19.3137 3.68629 22 7 22H10C13.3137 22 16 19.3137 16 16V7.5C16 6.67157 15.3284 6 14.5 6C13.6716 6 13 6.67157 13 7.5M7 3.5V14M7 3.5V2.5C7 1.67157 7.67157 1 8.5 1C9.32843 1 10 1.67157 10 2.5V4.5M10 4.5V14M10 4.5C10 3.67157 10.6716 3 11.5 3C12.3284 3 13 3.67157 13 4.5V7.5M13 7.5V14" stroke="black" stroke-linecap="round" stroke-linejoin="round"/>
</svg>
